<?xml version="1.0" encoding="UTF-8"?>
<svg id="Capa_2" data-name="Capa 2" xmlns="http://www.w3.org/2000/svg" viewBox="0 0 686.9 703.34">
  <defs>
    <style>
      .cls-1 {
        fill: #943d13;
        opacity: .87;
      }

      .cls-1, .cls-2 {
        stroke-width: 0px;
      }

      .cls-2 {
        fill: #953e15;
      }
    </style>
  </defs>
  <g id="Capa_1-2" data-name="Capa 1">
    <g>
      <path class="cls-1" d="m343.45,703.34C154.07,703.34,0,545.58,0,351.67S154.07,0,343.45,0s343.45,157.76,343.45,351.67-154.07,351.67-343.45,351.67Zm0-685.03C164.16,18.3,18.3,167.85,18.3,351.67s145.86,333.36,325.15,333.36,325.15-149.55,325.15-333.36S522.73,18.3,343.45,18.3Z"/>
      <path class="cls-2" d="m344.14,64.08c-154.95,0-280.55,130.57-280.55,291.63s125.61,291.63,280.55,291.63,280.56-130.57,280.56-291.63S499.09,64.08,344.14,64.08Zm-8.92,547.81S89.28,436.28,178.38,246.58c0,0,50.64-95.38,166.06-87.54,115.42,7.84,150.16,97.49,150.16,97.49,0,0,28.64,53.19,15,122.42,0,0-6.35,96.84-174.37,232.94Z"/>
      <path class="cls-2" d="m331.68,298.71s25.77-47.73,79.56-18.59c28.82,15.61,21.93,48.9,9.33,76.46-10.29,22.49-25.22,42.56-43.03,59.73l-45.87,44.23s-70.81-48.55-91.33-133.17c-4.25-17.52,1.59-36.62,16.11-47.3,5.88-4.33,13.59-7.8,23.67-9.37,40.34-6.26,51.55,28.01,51.55,28.01Z"/>
    </g>
  </g>
</svg>