<?xml version="1.0" encoding="UTF-8"?>
<svg id="Capa_2" data-name="Capa 2" xmlns="http://www.w3.org/2000/svg" viewBox="0 0 659.42 675.21">
  <defs>
    <style>
      .cls-1 {
        fill: #943d13;
        opacity: .87;
      }

      .cls-1, .cls-2 {
        stroke-width: 0px;
      }

      .cls-2 {
        fill: #953e15;
      }
    </style>
  </defs>
  <g id="Capa_1-2" data-name="Capa 1">
    <path class="cls-1" d="m329.71,675.21C147.91,675.21,0,523.76,0,337.6S147.91,0,329.71,0s329.71,151.45,329.71,337.6-147.91,337.6-329.71,337.6Zm0-657.64C157.6,17.57,17.57,161.14,17.57,337.6s140.03,320.03,312.14,320.03,312.14-143.57,312.14-320.03S501.83,17.57,329.71,17.57Z"/>
    <path class="cls-2" d="m330.38,61.52c-148.75,0-269.33,125.34-269.33,279.97s120.58,279.97,269.33,279.97,269.33-125.34,269.33-279.97S479.12,61.52,330.38,61.52Zm169.6,219.08l-184.75,229.74c-3.73,3.7-8.74,5.56-13.75,5.56-4.7,0-9.42-1.64-13.08-4.94l-1.3-1.46-89.74-126.98c-6.47-6.55-7.02-16.58-1.15-23.77l35.56-43.64c3.28-4.02,8.21-6.57,13.53-6.97,5.35-.43,10.71,1.38,14.63,4.92l1.4,1.27,37.68,86.25c.46.06.96-.02,1.34-.23l127.9-181.22c7.08-7.11,18.68-7.63,26.41-1.15l43.73,36.6c3.92,3.28,6.29,8.02,6.5,13.01.21,4.78-1.59,9.49-4.93,13.02Z"/>
  </g>
</svg>